<?xml version="1.0" encoding="UTF-8" standalone="no"?>
<svg width="456" height="456" viewBox="0 0 456 456" version="1.1" xmlns="http://www.w3.org/2000/svg">
  <path d="M118 128h220c22.1 0 40 17.9 40 40v138c0 22.1-17.9 40-40 40H118c-22.1 0-40-17.9-40-40V168c0-22.1 17.9-40 40-40zm0 26c-7.7 0-14 6.3-14 14v138c0 7.7 6.3 14 14 14h220c7.7 0 14-6.3 14-14V168c0-7.7-6.3-14-14-14H118z" fill="#FFFFFF"/>
  <path d="M185 191.6c0-10.4 11.4-16.8 20.3-11.4l67.7 41.4c8.5 5.2 8.5 17.6 0 22.8l-67.7 41.4c-8.9 5.4-20.3-2.1-20.3-12.5v-81.7z" fill="#FFFFFF"/>
  <path d="M228 76c8.3 0 15 6.7 15 15v53c0 8.3-6.7 15-15 15s-15-6.7-15-15V91c0-8.3 6.7-15 15-15z" fill="#FFFFFF"/>
  <path d="M176.6 121.4c5.9-5.9 15.4-5.9 21.2 0L228 151.6l30.2-30.2c5.9-5.9 15.4-5.9 21.2 0s5.9 15.4 0 21.2l-40.8 40.8c-5.9 5.9-15.4 5.9-21.2 0l-40.8-40.8c-5.9-5.8-5.9-15.3 0-21.2z" fill="#FFFFFF"/>
  <path d="M169 372c0-8.3 6.7-15 15-15h88c8.3 0 15 6.7 15 15s-6.7 15-15 15h-88c-8.3 0-15-6.7-15-15z" fill="#FFFFFF"/>
</svg>
